<?xml version="1.0" standalone="no"?>
<!DOCTYPE svg PUBLIC "-//W3C//DTD SVG 1.1//EN" "http://www.w3.org/Graphics/SVG/1.1/DTD/svg11.dtd">
<svg t="1757490024670" class="icon" viewBox="0 0 1024 1024" version="1.1" xmlns="http://www.w3.org/2000/svg" p-id="1487" xmlns:xlink="http://www.w3.org/1999/xlink" width="200" height="200">
<path d="M512 1024A512 512 0 1 1 512 0a512 512 0 0 1 0 1024z m0-115.2A396.8 396.8 0 1 0 512 115.2a396.8 396.8 0 0 0 0 793.6zM360.704 452.992l96.448 96.384 206.08-206.08a57.6 57.6 0 1 1 81.472 81.408L497.92 671.616a57.6 57.6 0 0 1-81.472 0L279.296 534.4a57.6 57.6 0 1 1 81.408-81.472z" fill="#2c2c2c" p-id="1488">
</path>
</svg>